<?xml version="1.0" standalone="no"?>
<!DOCTYPE svg PUBLIC "-//W3C//DTD SVG 20010904//EN"
 "http://www.w3.org/TR/2001/REC-SVG-20010904/DTD/svg10.dtd">
<svg version="1.0" xmlns="http://www.w3.org/2000/svg"
 width="747.000000pt" height="747.000000pt" viewBox="0 0 747.000000 747.000000"
 preserveAspectRatio="xMidYMid meet">
<metadata>
Created by potrace 1.11, written by Peter Selinger 2001-2013
</metadata>
<g transform="translate(0.000000,747.000000) scale(0.100000,-0.100000)"
fill="#000000" stroke="none">
<path d="M0 3735 l0 -3735 3735 0 3735 0 0 3735 0 3735 -3735 0 -3735 0 0
-3735z m5182 1643 c79 -37 142 -98 181 -177 l32 -66 2 -1080 2 -1080 -27 76
c-50 136 -182 291 -258 304 -252 41 -500 150 -691 302 -134 106 -302 287 -410
438 -70 100 -183 303 -234 422 -24 57 -46 103 -49 103 -3 0 -10 -12 -17 -27
-96 -223 -131 -289 -246 -464 -115 -174 -292 -363 -452 -483 -91 -68 -227
-145 -345 -196 -92 -40 -276 -90 -333 -90 -21 0 -44 -16 -95 -68 -37 -38 -74
-81 -82 -98 -8 -16 -23 -42 -34 -59 -11 -16 -30 -63 -43 -105 l-22 -75 2 1090
2 1090 26 56 c47 100 129 172 232 205 34 10 301 12 1422 11 l1380 -2 57 -27z
m-2332 -2164 c104 -40 191 -129 231 -232 17 -48 20 -73 17 -157 -3 -83 -8
-108 -30 -151 l-26 -50 60 -49 c33 -27 71 -62 84 -79 l25 -31 77 73 c42 40 85
75 94 78 16 5 15 10 -10 57 -25 48 -27 61 -27 167 0 104 3 120 27 173 33 70
116 155 184 187 108 50 240 50 348 0 68 -32 151 -117 184 -187 24 -53 27 -69
27 -173 0 -106 -2 -119 -27 -167 -25 -47 -26 -52 -10 -57 9 -3 52 -39 95 -79
69 -64 79 -71 88 -55 10 19 139 133 158 139 6 3 0 25 -17 59 -24 50 -27 65
-27 165 0 100 3 115 28 166 38 78 117 155 196 193 59 27 75 30 161 30 130 0
193 -25 276 -108 69 -70 100 -127 116 -216 13 -77 0 -172 -35 -242 -13 -26
-21 -48 -18 -48 3 0 18 -10 33 -23 15 -12 43 -35 62 -50 108 -84 205 -287 206
-429 l0 -48 -129 0 -128 0 -7 48 c-7 57 -46 141 -91 197 -67 82 -217 144 -318
131 -98 -13 -186 -57 -249 -123 -36 -38 -89 -154 -96 -209 l-5 -44 -133 0
-134 0 0 31 c0 55 -60 180 -110 230 -77 77 -214 129 -304 115 -58 -9 -146 -38
-146 -48 0 -4 -6 -8 -14 -8 -7 0 -36 -21 -64 -47 -58 -55 -110 -154 -119 -225
l-6 -48 -132 0 -132 0 -5 44 c-7 55 -60 171 -96 209 -63 66 -151 110 -249 123
-101 13 -251 -49 -318 -131 -45 -56 -84 -140 -91 -197 l-7 -48 -128 0 -129 0
0 48 c0 108 54 249 133 352 39 50 121 124 163 148 17 10 17 13 -6 63 -22 46
-25 66 -25 163 0 100 3 117 27 169 47 100 144 181 258 214 58 17 182 10 240
-13z"/>
<path d="M2383 5130 c-65 -39 -63 -28 -61 -565 l3 -486 37 28 c48 36 140 159
183 244 81 159 134 328 150 477 l7 62 135 0 135 0 -7 -75 c-5 -61 -34 -215
-48 -260 -54 -174 -126 -335 -202 -450 -87 -131 -286 -306 -367 -322 -28 -5
-28 -6 -28 -80 l0 -74 38 7 c258 46 524 210 730 447 82 94 172 211 172 224 0
4 11 21 25 37 41 48 171 323 215 456 36 109 80 292 80 335 0 13 -78 15 -582
15 -561 0 -584 -1 -615 -20z"/>
<path d="M3880 5135 c0 -40 42 -223 73 -315 136 -412 369 -749 675 -980 130
-98 388 -210 484 -210 28 0 28 0 28 68 l0 67 -68 32 c-208 98 -402 360 -505
683 -11 36 -22 70 -24 75 -13 39 -43 198 -48 260 l-7 75 135 0 135 0 7 -67
c11 -105 59 -278 107 -389 55 -124 146 -262 213 -320 l50 -44 3 490 c2 542 4
531 -61 570 -31 19 -54 20 -614 20 -505 0 -583 -2 -583 -15z"/>
<path d="M2652 2953 c-83 -41 -84 -176 -1 -219 84 -43 179 13 179 106 0 55
-22 94 -64 114 -43 20 -72 20 -114 -1z"/>
<path d="M3672 2953 c-83 -41 -84 -176 -1 -219 84 -43 179 13 179 106 0 55
-22 94 -64 114 -43 20 -72 20 -114 -1z"/>
<path d="M4680 2932 c-34 -34 -40 -45 -40 -81 0 -105 101 -164 188 -111 34 21
62 72 62 112 0 36 -37 88 -75 104 -58 24 -90 18 -135 -24z"/>
</g>
</svg>
